M48
; DRILL file {KiCad 8.0.2-1} date 2024-07-05T17:43:03+0200
; FORMAT={-:-/ absolute / metric / decimal}
; #@! TF.CreationDate,2024-07-05T17:43:03+02:00
; #@! TF.GenerationSoftware,Kicad,Pcbnew,8.0.2-1
; #@! TF.FileFunction,Plated,1,2,PTH
FMAT,2
METRIC
; #@! TA.AperFunction,Plated,PTH,ViaDrill
T1C0.300
; #@! TA.AperFunction,Plated,PTH,ViaDrill
T2C0.400
; #@! TA.AperFunction,Plated,PTH,ComponentDrill
T3C0.750
; #@! TA.AperFunction,Plated,PTH,ComponentDrill
T4C2.100
%
G90
G05
T1
X256.5Y-534.5
X257.0Y-532.5
T2
X67.728Y-310.351
X76.16Y-340.257
X80.0Y-367.0
X86.396Y-329.053
X88.085Y-409.713
X88.44Y-368.078
X89.848Y-302.378
X93.783Y-395.328
X97.413Y-355.967
X97.598Y-329.467
X104.165Y-393.315
X108.609Y-434.099
X108.872Y-354.5
X109.41Y-320.379
X111.83Y-380.432
X112.715Y-419.329
X119.775Y-344.316
X122.382Y-319.663
X122.869Y-415.54
X123.268Y-377.008
X129.193Y-402.012
X131.858Y-454.947
X133.022Y-341.417
X133.204Y-365.804
X134.379Y-439.954
X138.5Y-312.0
X140.317Y-396.59
X144.028Y-434.401
X146.427Y-360.608
X148.0Y-331.0
X148.994Y-420.347
X149.5Y-475.5
X151.5Y-383.5
X152.017Y-310.973
X157.254Y-471.963
X158.213Y-456.898
X159.5Y-412.921
X160.0Y-330.5
X162.117Y-376.854
X162.5Y-348.5
X167.081Y-449.628
X169.0Y-398.5
X170.678Y-435.157
X171.5Y-306.0
X174.0Y-345.5
X176.0Y-364.0
X176.496Y-492.111
X179.562Y-389.843
X179.61Y-323.263
X180.258Y-425.76
X183.621Y-469.941
X184.189Y-484.938
X187.5Y-410.0
X190.165Y-303.562
X190.815Y-355.355
X191.268Y-377.725
X191.434Y-461.04
X193.085Y-336.357
X193.659Y-446.25
X196.5Y-400.5
X201.0Y-317.5
X201.999Y-434.948
X205.478Y-502.306
X207.214Y-363.458
X207.622Y-417.0
X209.0Y-518.5
X209.5Y-383.0
X209.988Y-478.958
X210.0Y-344.0
X212.037Y-493.761
X216.477Y-468.548
X216.5Y-326.5
X216.5Y-407.0
X217.329Y-453.524
X223.358Y-305.101
X224.116Y-440.417
X224.395Y-367.582
X226.5Y-349.0
X227.74Y-389.857
X228.542Y-424.857
X234.0Y-330.5
X234.97Y-508.172
X236.5Y-409.5
X236.689Y-483.914
X240.169Y-498.411
X241.001Y-522.16
X241.5Y-454.5
X241.599Y-472.154
X241.622Y-310.83
X241.727Y-367.308
X244.0Y-349.5
X245.0Y-444.0
X246.067Y-390.039
X249.154Y-425.789
X254.888Y-408.5
X255.662Y-325.483
X258.55Y-364.5
X261.0Y-304.5
X262.194Y-347.334
X263.105Y-484.869
X263.535Y-386.08
X264.283Y-454.0
X264.331Y-509.75
X266.194Y-471.952
X267.022Y-440.374
X267.469Y-532.266
X267.964Y-498.961
X268.822Y-423.087
X271.718Y-522.942
X271.853Y-400.258
X274.216Y-350.196
X276.0Y-312.5
X279.385Y-377.741
X282.0Y-330.0
X286.363Y-451.0
X286.603Y-436.5
X286.91Y-416.909
X287.0Y-479.5
X287.5Y-327.5
X287.5Y-393.5
X289.679Y-468.123
X291.5Y-505.0
X292.737Y-364.449
X294.822Y-495.576
X296.483Y-309.189
X297.0Y-527.5
X300.5Y-380.5
X302.78Y-407.473
X306.749Y-445.585
T3
X282.5Y-317.5
X284.5Y-317.5
X293.5Y-315.5
X295.5Y-315.5
T4
X57.5Y-307.0
X63.5Y-307.0
X255.5Y-316.5
X261.5Y-316.5
X296.5Y-539.5
X296.5Y-545.5
M30
